# xmcd CD database file
#
# Track frame offsets:
#	150
#	14167
#	33748
#	46199
#	63336
#	74101
#	88802
#	100036
#	113197
#	125670
#	138389
#	150505
#	162936
#	176263
#	188940
#	197131
#	207422
#	224213
#	238444
#	251534
#	262751
#	273108
#	283500
#
# Disc length: 3970 seconds
#
# Revision: 0
# Processed by: cddbd v1.5.1PL0 Copyright (c) Steve Scherf et al.
# Submitted via: CDex 1.51
#
DISCID=640f8017
DTITLE=Various Artist - Hvezdy americke country CD3
DYEAR=2000
DGENRE=Country
TTITLE0=Dolly Partonova - I Will Always Love You
TTITLE1=Kenny Rogers - She Believes In Me
TTITLE2=Loretta Lynnova - I Fall To Pieces
TTITLE3=Dr. Hook And A Medicine Show - Sylvia's Mother
TTITLE4=Roger Miller - When Two Worlds Collide
TTITLE5=B. J. Thomas - I'm So Lonesome I Could Cry
TTITLE6=Conway Twitty - Hello Darlin'
TTITLE7=Donna Fargova - Daddy
TTITLE8=Charlie Rich - Behind Closed Doors
TTITLE9=Don Williams - You're My Best Friend
TTITLE10=Tammy Wynneteova - There Goes My Everithing
TTITLE11=Lynn Andersonova - Listen To A Country Song
TTITLE12=Conway Twitty - After All The Good Is Gone
TTITLE13=Jim Reeves - Bimbo
TTITLE14=Johnny Cash - Sugartime
TTITLE15=Roger Miller - Engine Engine No. 9
TTITLE16=The Jordanaires - Michael Row The Boat Ashore
TTITLE17=Kenny Rogers - You Light Up My Life
TTITLE18=Dolly Partonova - Here You Come Again
TTITLE19=Stonewall Jackson - Waterloo
TTITLE20=Don Reno and Bobby Thompson - This Land Is Your Land
TTITLE21=Donna Fargova - The Happiest Girl In The Whole USA
TTITLE22=Billie Jo Spearsova - What I've Got In Mind
EXTD=YEAR: 2000
EXTT0=
EXTT1=
EXTT2=
EXTT3=
EXTT4=
EXTT5=
EXTT6=
EXTT7=
EXTT8=
EXTT9=
EXTT10=
EXTT11=
EXTT12=
EXTT13=
EXTT14=
EXTT15=
EXTT16=
EXTT17=
EXTT18=
EXTT19=
EXTT20=
EXTT21=
EXTT22=
PLAYORDER=
